<svg xmlns="http://www.w3.org/2000/svg" version="1.1" xmlns:xlink="http://www.w3.org/1999/xlink" xmlns:svgjs="http://svgjs.com/svgjs" width="1440" height="250" preserveAspectRatio="none" viewBox="0 0 1440 250"><g mask="url(&quot;#SvgjsMask1021&quot;)" fill="none"><path d="M17 250L267 0L310.5 0L60.5 250z" fill="url(#SvgjsLinearGradient1022)"></path><path d="M245.60000000000002 250L495.6 0L812.1 0L562.1 250z" fill="url(#SvgjsLinearGradient1022)"></path><path d="M511.20000000000005 250L761.2 0L821.2 0L571.2 250z" fill="url(#SvgjsLinearGradient1022)"></path><path d="M738.8000000000001 250L988.8000000000001 0L1165.8000000000002 0L915.8000000000001 250z" fill="url(#SvgjsLinearGradient1022)"></path><path d="M1406 250L1156 0L1028.5 0L1278.5 250z" fill="url(#SvgjsLinearGradient1023)"></path><path d="M1195.4 250L945.4000000000001 0L817.9000000000001 0L1067.9 250z" fill="url(#SvgjsLinearGradient1023)"></path><path d="M934.8 250L684.8 0L441.79999999999995 0L691.8 250z" fill="url(#SvgjsLinearGradient1023)"></path><path d="M704.1999999999999 250L454.19999999999993 0L382.19999999999993 0L632.1999999999999 250z" fill="url(#SvgjsLinearGradient1023)"></path><path d="M1287.2622876351882 250L1440 97.26228763518816L1440 250z" fill="url(#SvgjsLinearGradient1022)"></path><path d="M0 250L152.73771236481184 250L 0 97.26228763518816z" fill="url(#SvgjsLinearGradient1023)"></path></g><defs><mask id="SvgjsMask1021"><rect width="1440" height="250" fill="#ffffff"></rect></mask><linearGradient x1="0%" y1="100%" x2="100%" y2="0%" id="SvgjsLinearGradient1022"><stop stop-color="rgba(15, 70, 185, 0.2)" offset="0"></stop><stop stop-opacity="0" stop-color="rgba(15, 70, 185, 0.2)" offset="0.66"></stop></linearGradient><linearGradient x1="100%" y1="100%" x2="0%" y2="0%" id="SvgjsLinearGradient1023"><stop stop-color="rgba(15, 70, 185, 0.2)" offset="0"></stop><stop stop-opacity="0" stop-color="rgba(15, 70, 185, 0.2)" offset="0.66"></stop></linearGradient></defs></svg>